@startuml
hide empty members
'Validators
abstract class IValidatorChain {
	#nextValidator: IValidatorChain
	{abstract} +isValid(line:str): bool
	+setNextValidator(chain: IValidatorChain)
}
abstract class IValidatorChainSolo {
	#validatePat: Regex
  +isValid(line:str): bool
}
class ObjectStrategy {
	{static}#speakerObjects: Set<str>
  {static}-objNamePat: Regex
  {static}#charItemPats: List<Regex>
  {static}#validatePat: Regex
  {static}-initCharItems(charItems: List<Rule>)
  {static}+reset()
  +defineSpeakers(fileInfos: List<FileInfo>)
  +isValid(line:str): bool
}
class NullStrategy

'Validator Rules
dataclass Rule {
    +pattern: Regex
}
dataclass CharRule
dataclass BasicCharRule
dataclass CueRule
dataclass TextTagRule
dataclass ObjectRule
dataclass BasicObjectRule
dataclass VarObjectRule
dataclass QuoteCueRule
dataclass QuoteTextTagRule
dataclass QuoteSurroundRule
dataclass VarRule
dataclass BuiltinRule
dataclass ParentheticalRule
dataclass BasicParentheticalRule

'File Descriptors
class Reader {
  +readLines(fileURL: Union[str,Path]): FileInfo
  +walkFiles(rootDir:str, fileFilter: Union[FileFilter,RenpyFilter]): List<str>
}
class Writer {
  +writeLines(fileInfo:FileInfo)
  +dumpStats()
}
class Deleter {
	+delete(fileURL: str)
}
class Backup {
  {static}+backupFiles(filePaths:List<str>)
  {static}+restoreFiles(filePaths:List<str>)
  {static}-copyFiles(filePaths:List<str>,fileExt: str)
}

'File Filters
abstract class FileFilter {
  {static}+FILEEXT: str
  #fileFilterSet: Set<str>
  {abstract}+isValidFile(fileName: str): bool
}
abstract class FolderFilter {
  #folderFilterSet: Set<str>
  {abstract}+isInvalidFolder(dirPath: str, subDirs: List<str>):bool
}
class BackupFilter {
  {static}+FILEEXT: str
  +isValidFile(fileName: str): bool
}

abstract class FSFilter
abstract class RenpyFilter {
  {static}+FILEEXT: str
  #globFilterSet: Set<str>
  {abstract}#hasPassedFileGlob(fileName:str): bool
  {abstract}#hasPassedFileLiteral(fileName:str): bool
  +isValidFile(fileName:str): bool
}
class InvalidRenpyFilter {
  #hasPassedFileGlob(fileName:str): bool
  #hasPassedFileLiteral(fileName:str): bool
  +isInvalidFolder(dirPath: str, subDirs: List<str>):bool
}
class ValidRenpyFilter {
   #completedFirstDepth: bool
   #hasPassedFileGlob(fileName:str): bool
   #hasPassedFileLiteral(fileName:str): bool
   +isInvalidFolder(dirPath: str):bool
}

'ThreadExecutors
class  FileExecutor <<Singleton>>{
	{static}+fileLines(reader:Reader,arg:Namespace): List<FileInfo>
  {static}+writeFiles(writer:Writer,fileInfos:List<FileInfo>)
  {static}+fix_errors(error_txt:Path,reader:Reader)
  {static}-fixFunc(errors: List<RenpyError>)
}

'Handler State
class AtlState {
  +isAtl: bool
  +indentNum: int
  -altPat: Regex
  {static}+isBlock(stripLine:str): bool
}
class LineState {
  {static}-SINGLE_QUOTE:str
  {static}-DOUBLE_QUOTE: str
  {static}-SINGLE_TRIPLE_QUOTE: str
  {static}-DOUBLE_TRIPLE_QUOTE: str
  {static}-HASH: str
  #stripLine: str
  #isComment: bool
  #isTripleQuote: bool
  #isTripleQuoteEnd: bool
  #hasTripleQuote: bool
  #isMenu: bool
  +hasLooseDoubleQuote(): bool
  +hasMoreTripleQuote(): bool
  +setup(line:str)
  {static}-isAComment(stripLine:str): bool
  {static}-startswitchTripleQuote(stripLine:str): bool
  {static}-hasTripleQuote(stripLine:str): bool
  {static}-endswithTripleQuote(stripLine:str): bool
  {static}-isChoiceMenu(stripLine:str): bool
}
class MultiLineState {
  +multiType: MultiLineType
  +isChoiceMenu: bool
  #lines: List<str>
  +clear()
  +appendLine(line:str)
  +isEmpty(): bool
  +reset()
  +getLine(): List<str>
}
abstract class PrevState {
  +line: str
  +reset()
  {abstract}#resetState()
}
class PrevMultiState {
  +multiLine: MultiLineState
  +isNarr: bool
  #resetState()
}
class PrevIndentState {
  #indentNum: int
  #hasReset: bool
  #resetState()
}
class PauseState {
  -isPause: bool
  -isPrevPause: bool
  +setPause(value:bool)
  +isDuplicate(): bool
  +snapshotPauseState()
}

'Narrator Handler
class  NarratorHandler <<Singleton>>{
  {static}+PAUSE_STATEMENTS:tuple<str>
  {static}-closingPat: Regex
  {static}+remove(fileInfos:List<FileInfo>,args:Namespace): List<Dictionary<str,List<str>>>
  {static}+getIdentNum(line:str):int
  {static}-isClosing(line:str):bool
  {static}-correctIndent(fileInfos:List<FileInfo>): List<FileInfo>
  {static}-pauseFilter(fileInfos:List<FileInfo>): List<FileInfo>
}
class ErrorFixer {
  +fix(errors_txt_dir: str, errors: List<RenpyError>,reader:Reader,writer:Writer,deleter:Deleter)
}
class ErrorParser {
  {static}-destPat: Regex
  {static}-typePat: Regex
  {static}-lineNumPat: Regex
  {static}+getErrors(errors_txt:Path, reader:Reader): Dictionary<str,List<RenpyError>>
  {static}-formatErrorType(): str
  {static}-addError(errors: Dictionary<str,List<RenpyError>>,error: RenpyError)
  {static}-parseError(projectDir:str,line:str): RenpyError
  {static}-regexMatch(pattern:Regex,line:str, transformFunc): str
 } 
dataclass FileInfo {
  +url:str
  +lines: List<str>
}
dataclass RenpyError {
  +projectDir:Union[str,None]
  +line_num:Union[int,None]
  +file_loc:Union[str,None]
  +category:Union[str,None]
}

'Argument Classes
class CLIParser {
    -parser: ArgumentParser
    -setup()
    -initParser()
    -configureOpts()
    +getArgs(commands:str)
}
class ArgChecker {
    {static}+checkArgs(args: Namespace)
    {static}-validateFolderOrFileArg(folderOrFileArg: Path)
}
class ArgAssembler {
  {static}-nargValidators: Dictionary<str,Type<IValidatorChain>>
  {static}-quoteValidators: List<IValidatorChain>
  {static}+assemble(args:Namespace)
  {static}-convertFilters(args:Namespace)
  {static}-getFilters(optionName:str): Union<IValidatorChain, List<IValidatorChain>>
  {static}-escape(args:Namespace, arg_filter_val: Union<List<str>,None>>): Union<str,List<str>,None>
  {static}-nargFilter(validator:Union<IValidatorChain,None>,arg_filter: Union<str,List<str>,None>,filterName:str, ruleType: Type<Rule>): IValidatorChain
  {static}-quoteFilter(args:Namespace)
  {static}-quoteNArgs(validator:Union<IValidatorChain,None>, argFilter: Union<str,List<str>,None>,filterType: Type<IValidatorChain>, ruleType: Type<Rule>)
}

'Enums
enum DialogueRules {
  BASIC
  ITALIC
  ONLY_PUNCTUATION
  PARENTHESIS
  TILDA_EXPRESSION_CUE
  ASTERISK_EXPRESSION_CUE
  TEXT_TAG
  GUILLEMET_SINGLE
  GUILLEMET_DOUBLE
}

enum SpeakerRules {
  CHARACTER
  CHARACTER_BASIC
  CHARACTER_NONE
  OBJECT
  OBJECT_ITALIC
  OBJECT_NONE
  OBJECT_VAR
  VAR
}

enum BuiltInSpeakerRules {
  NVL
  NARRATOR
}

enum QuoteRules {
  EXPRESSION_CUE_TILDA
  EXPRESSION_CUE_ASTERISK
  ITALIC
  ONLY_PUNCTUATION
  PARENTHESIS
  TEXT_TAG
  GUILLEMET_SINGLE
  GUILLEMET_DOUBLE
}

enum FilterTag {
    KEEP_NARRATION
    KEEP_COMMON_OBJ_CHARS
    KEEP_ITALIC
    KEEP_PARENTHESIS
    KEEP_COMMON_QUOTED_CHARS
    KEEP_EMPTY_QUOTED_CHARS
    KEEP_EMPTY_OBJ_CHARS
    KEEP_EXPRESSION_CUES
    KEEP_PUNCTUATIONS
    KEEP_GUILLEMETS
    KEEP_NVL
		KEEP_COMMON_PARENTHETICALS
    TEXT_TAGS
    QUOTED_CHARS
    OBJ_CHARS
    RENPY_VARS
    PYTHON_VARS
		PARENTHETICALS
}

enum MultiLineType {
  NONE
  SINGLE_QUOTE
  TRIPLE_QUOTE 
  VALID_TRIPLE_QUOTE
  VALID_SINGLE_QUOTE
}

'File Filters Relations
FileFilter <|-- FSFilter
FileFilter <|-- BackupFilter
FolderFilter <|-- FSFilter
FSFilter <|-- RenpyFilter
RenpyFilter <|-- InvalidRenpyFilter
RenpyFilter <|-- ValidRenpyFilter

'State Relations
PrevState <|-- PrevIndentState
PrevState <|-- PrevMultiState
MultiLineState o-- PrevMultiState

'Handler Relations
NarratorHandler --> PrevIndentState : uses
NarratorHandler --> PrevMultiState : uses
NarratorHandler --> AltState : uses
NarratorHandler --> LineState : uses
NarratorHandler --> PauseState : uses

'Validator Relations
IValidatorChain <|-- ObjectStrategy
IValidatorChain <|-- IValidatorChainSolo
IValidatorChainSolo <|-- NullStrategy
IValidatorChainSolo ..> Rule : uses

'Rules Relations
Rule <|-- CharRule
Rule <|-- CueRule
Rule <|-- TextTagRule
Rule <|-- ObjectRule
Rule <|-- VarObjectRule
Rule <|-- VarRule
Rule <|-- QuoteCueRule
Rule <|-- QuoteTextTagRule
Rule <|-- QuoteSurroundRule
Rule <|-- BuiltinRule
Rule <|-- ParentheticalRule
CharRule <|-- BasicCharRule
ObjectRule <|-- BasicObjectRule
ParentheticalRule <|-- BasicParentheticalRule

'Argument Relations
ArgChecker ..> CLIParser : uses
ArgAssembler ..> CLIParser : uses
@enduml
